<?xml version="1.0" encoding="UTF-8"?>
<svg id="Capa_2" data-name="Capa 2" xmlns="http://www.w3.org/2000/svg" viewBox="0 0 557.66 155.32">
  <defs>
    <style>
      .cls-1 {
        fill: #f8b133;
      }
    </style>
  </defs>
  <g id="Stamping">
    <g>
      <g>
        <path class="cls-1" d="M87.64,108.34c-5.29,39.48-61.67,27.72-87.39,22.37-.55-5.25-.01-12.92,0-17.16.02-4.99,1.1-13.15,1.84-16.03,1.65.19,3.12.17,4.59.33.88-11.81.93-23.61.93-35.44,0-10.42-.36-18.82-.91-26.83-1.47-.06-2.76-.3-4.23-.54-1.29-4.49-1.46-9.68-1.47-14.65-.02-4.09-.18-11.26.37-16.25C32.13-.06,76.04-5.12,80.42,36.16c1.2,11.31-.07,23.63-6.71,33.33,10.55,9.77,15.82,24.72,13.93,38.85ZM37.39,85.53c0,5.76.35,11.56.53,17.53,9.93,1.77,17.26,2.02,18.59-3.68,2.14-9.13-7.16-12.28-19.12-13.85ZM38.57,36.02c-.19,5.57-.57,11.13-.76,17.65,7.55-.95,12.41-3.75,11.25-10.11-.85-4.65-4.96-6.77-10.49-7.54Z"/>
        <path class="cls-1" d="M99.12,79.71c.21-25.47-1.75-51.18-3.52-76.82,6.64.42,10.96,1.58,17.52,2.07,7.3.55,10.33.03,18.08.26-1.01,27.57-2.99,55.08-2.03,82.59.69,19.79,1.57,39.69,2.45,59.54-6.64-.95-10.99-2.47-17.52-3.55-6.74-1.12-9.78-.89-16.78-2.19.36-20.64,1.63-41.44,1.79-61.9Z"/>
        <path class="cls-1" d="M236.49,58.48c0,7.7-.29,12.07-.39,19.68-.11,8.45-.38,12.19-.39,21.17-2.03-.46-3.88-.7-5.54-1.16,0,2.57,0,5.56.18,8.55.95,16.13,1.39,32.37,1.44,48.56-5.37.29-12.1-1.14-17.2-1.6-6.21-.56-9.99-.38-16.27-2.14.19-2.32.19-4.66.38-6.98-4.26,3.85-9.08,6.15-13.87,5.91-36.65-1.78-48.03-50.69-45.46-79.36,2.53-28.29,14.17-63.63,45.53-70.41,17.84-3.86,36.69,8.66,43.69,25.22-.19,4.49-2.96,9.82-8.32,17.45-2.59,3.82-10.35,11.82-13.68,12.41-1.49-8.99-10.17-23.16-19.17-20.61-9.93,2.81-12.96,21.87-14.09,32-1.42,12.81.07,38.95,15.07,43.72,4.95,1.58,8.87,1.37,12.2-1.49,0-.09,0-.13,0-.21.19-4.88.2-9.34.02-13.37-3.69.11-7.2,0-11.82.29.01-6.77-.35-9.53-.34-18.62,0-4.86.57-9.29.58-17.33,8.31,1.01,13.31-.19,21.6.8,9.95,1.19,15.88-.84,25.86-2.47Z"/>
      </g>
      <path class="cls-1" d="M367.99,1.19c23.76-.02,42.84,10.73,44.59,36.27,1.42,12.09-.08,24.81-6.57,35.34,12.66,10.51,15.85,31.76,14.13,47.08-4.46,29.97-45.1,33.73-68.79,34.75-22.44.46-44.68-.88-67.03-2.81-.55-5.79-.19-14.81,0-19.75-.18-6.01,1.11-11.38,1.85-14.6,1.95-.24,4.27-.35,6.87-.36,25.69.16,51.19,4.68,76.92,3.88,10.68-.43,18.14-6.32,18.96-10.27,2.01-8.91-5.2-15.74-15.36-16.68.22,2.19.38,7.3.55,12.06.17,4.67-3.2,8.64-7.29,8.58-3.19-.05-6.02-.1-10.4.04-2.22.14-4.13.25-5.94.3-3.61.11-6.81,0-11.25-.45,1.29-21.39,2.39-42.57,1.77-63.99,0-3.62-.19-6.82-.38-9.8-2.22.02-4.06-.18-6.09-.37-1.3-5.11-1.67-11.09-1.5-17.07-.19-4.91-.2-12.81.35-18.79,11.48-1.64,22.99-3.37,34.62-3.37M370.91,58.83c7.01-1.83,11.44-5.08,10.32-11.59-.74-5.04-4.81-7.08-10.16-7.65,0,2.11-.18,4.23-.17,6.77-.18,4.44.01,8.46.02,12.47M379.44,39.47s.01,0,.02,0c0,0-.01,0-.02,0h0Z"/>
      <path class="cls-1" d="M525.1,75.37c.12-24.04-1.92-48.39-3.78-72.61,6.64.37,10.96,1.43,17.53,1.84,7.31.45,10.33-.05,18.07.1-.97,24.8-2.84,49.49-1.84,74.2.71,17.56,1.64,35.26,2.57,52.89-6.6.66-10.9.26-17.43.74-6.7.49-9.73,1.39-16.71,1.75.32-19.64,1.48-39.48,1.58-58.9Z"/>
      <path class="cls-1" d="M293.04,63.15c.03,14.81-1.71,29.57-1.65,44.41,1.61-.12,3.34-.21,5.33-.22,9.62-.04,19.4.74,29,1.58-.57-13.07-2.04-26.18-2.57-39.12-.88-21.36,1.04-42.85,1.79-64.38-7.75-.21-10.78.35-18.08-.2-6.56-.49-10.89-1.71-17.53-2.14,1.49,20.14,3.67,39.89,3.71,60.08Z"/>
      <path class="cls-1" d="M254.83,72.55c3.51-4.91,4.99-7.69,8.32-12.83,2.58,3.23,4.27,4.74,7.02,7.75,3.69,4.05,6.83,4.52,12.01,7.09-3.88,6.01-5.33,8.5-9.05,14.16-3.22,4.91-4.99,7.72-8.32,12.85-3.14-4.52-4.85-8.12-9.05-10.78-3.47-2.19-4.8-4.97-8.49-7.36,3.51-5.11,5.55-7.88,7.58-10.87Z"/>
      <path class="cls-1" d="M508.9,72.28c-.68-3.94-1.54-7.96-2.53-12.03-1.28-5.23-2.77-10.55-4.38-15.95-.88-2.96-1.8-5.94-2.73-8.93-3.37-10.75-6.7-21.51-9.83-32.34-6.64.61-11.18-.47-17.71.04-6.55.51-12.73-.38-19.18.04-6.27.01-19.37.65-19.55,1.89-1.95,11.67-1.13,23.78-2.87,35.2-.12.78,6.93-.04,9.94.1.9.04,1.44.17,1.32.45-2.44,8.15-4.98,16.12-7.12,24.47-.1.38-.19.75-.28,1.13-1.9,7.57-3.42,15.5-4.29,24.09-1.83,18.07-1.65,36.09-1.73,54.29,7.02.05,10.06-.73,16.79-.83,6.5-.1,10.82.6,17.37.35.05,0,.1,0,.15,0-.32-6.11-.79-10.88-1.15-14.92-.26-2.97-.5-6.14-.8-9.32-.13-1.4-.27-2.81-.42-4.23,1.25.42,2.52.77,3.81,1.03,2.91.58,5.93.74,8.97.47.32-.03.65-.08.98-.12,1.23-.14,2.47-.34,3.71-.62,1.38-.31,2.72-.69,4.04-1.14-.04.44-.09.88-.14,1.32-.74,6.93-1.82,14.79-2.61,25.57,6.63-1.13,10.86-3,17.48-3.99,7.36-1.46,10.31-1.24,18.02-2.43-.65-21.48-1.59-42.42-5.25-63.6ZM456.48,91.63c-1.35-1.61-2.53-3.39-3.53-5.35-.12-.23-.18-.57-.13-.84.35-1.88.55-3.76.63-5.64.06-1.31.07-2.63,0-3.94-.25-4.72-1.2-9.23-3.16-13.41-.22-.47-.2-.81.06-1.27,1.37-2.39,3.26-4.19,5.27-5.86.1-.09.25-.15.3-.27.06-.14.12-.36.06-.47-.05-.09-.21-.15-.33-.14-.02,0-.05,0-.07.01-.26.09-.51.25-.75.4-1.55.95-2.96,2.11-4.28,3.66.45-3.48,1.74-6.39,3.69-8.97,2.8-3.71,6.33-6.25,10.29-8.13,2.7-1.28,5.49-2.13,8.39-2.45.68-.08,1.36-.13,2.03-.15,2.19-.06,4.32.23,6.33,1.34,2.25,1.24,3.55,3.25,3.51,6.04-.01,1.08.33,1.51,1.22,1.86,1.8.7,3.2,1.95,3.98,3.88.49,1.21.55,2.5.44,3.81-.15,1.93-.76,3.73-1.68,5.48-.03-.45-.07-.89-.1-1.34-.28-3.81-1.82-6.87-4.58-9.21-.22-.19-.42-.28-.64-.27-.15,0-.32.06-.52.17-3.44,1.86-7.04,2.96-10.81,3.11-.42.02-.84.02-1.27.02-1.27-.02-2.54-.19-3.81-.18-.14,0-.29,0-.43.01-2.71.11-5.22.97-7.38,2.99-.67.63-.67.69-.31,1.53.41.96.84,1.92,1.21,2.91.1.26.1.63,0,.89-1.07,3.17-2.17,6.35-3.25,9.53-.06.19-.1.43-.04.61.78,2.48,1.4,5.03,2.54,7.34,1.26,2.58,2.83,4.88,4.89,6.71.12.11.25.21.38.31.05.04.11.05.26.1-.05-.31-.08-.56-.12-.8-.42-2.47.51-4.36,2.35-5.83,2.6-2.09,5.5-3.29,8.63-3.78.13-.02.24-.03.34-.04.44-.03.5.15.53.81.05.93-.16,1.81-.55,2.66-.15.33-.36.51-.71.57-1.68.3-3.3.85-4.82,1.76-1.3.78-2.48,1.74-3.28,3.15-.48.84-.84,1.74-.36,2.65.49.93,1.37,1.22,2.32,1.26.13,0,.25,0,.38,0,1.48-.1,2.55-1.11,3.49-2.33.45-.59.85-1.25,1.21-1.91.5-.92,1.47-1.53,2.43-1.59.29-.02.57.01.84.1.62.2,1.04.57,1.34,1.24.37.85.83,1.7,1.42,2.38.36.41.77.59,1.18.56.59-.04,1.14-.51,1.43-1.33.72-2.02.17-4.65-2.3-5.65-.54-.22-1.15-.27-1.71-.46-.26-.09-.56-.25-.71-.49-.55-.91-.62-1.96-.44-3.06.04-.25.16-.35.36-.36.03,0,.06,0,.09,0,2.55.13,4.75,1.07,6.42,3.08,1,1.21.91,2.7.4,4.22-.16.47-.37.93-.49,1.42,2.09-2.27,3.49-4.95,4.58-7.9.18-.49.35-.98.51-1.48.34,1.19.65,2.26.95,3.32.37,1.32.75,2.63,1.08,3.97.09.37.11.84-.02,1.2-1.56,4.2-3.72,7.65-6.56,10.24-2.65,2.42-5.88,4.1-9.78,4.92-.88.19-1.76.31-2.63.38-1.62.12-3.23.03-4.81-.31-3.24-.68-6.07-2.26-8.57-4.51-.99-.89-1.91-1.84-2.76-2.86Z"/>
    </g>
  </g>
</svg>