<?xml version="1.0" encoding="UTF-8"?>
<svg id="Capa_2" data-name="Capa 2" xmlns="http://www.w3.org/2000/svg" viewBox="0 0 733.96 190.25">
  <defs>
    <style>
      .cls-1 {
        fill: #f9b233;
      }
    </style>
  </defs>
  <g id="Capa_2-2" data-name="Capa 2">
    <g>
      <g>
        <path class="cls-1" d="M115.65,142.81c-6.71,53.95-77.65,43.48-115.32,36.63-.73-6.31-.02-15.56,0-20.66.02-5.98,1.46-15.96,2.43-19.54,2.19,0,4.13-.22,6.07-.22,1.08-14.57,1.34-29.17,1.21-43.71-.09-10.87-.33-21.8-1.21-32.68-1.94.44-3.64.6-5.58.84-1.7-4.98-1.92-11.09-1.94-17.14-.02-4.84-.24-13.5.48-19.78C38.46,9.43,98.83-12.74,105.94,46.35c1.85,15.41-.51,32.25-8.74,45.71,15.3,11.55,20.71,32.57,18.45,50.74ZM49.37,118.71c0,7.52.49,15.04.73,22.82,13.11,1.07,22.77.54,24.52-7.2,3.24-14.32-15.68-15.63-25.25-15.62ZM50.82,53.79c-.24,7.33-.73,14.68-.97,23.24,9.95-2.86,16.35-7.45,14.81-15.65-1.12-5.97-6.55-7.93-13.84-7.59Z"/>
        <path class="cls-1" d="M130.69,103.12c.21-34.24-2.46-68.73-4.86-103.12,8.74.07,14.42,1.44,23.07,1.98,9.61.6,13.59-.07,23.79.5-1.2,36.48-3.82,72.83-2.43,109.27,1,26.12,2.17,52.33,3.4,78.49-8.74-.44-14.46-1.94-23.06-2.63-8.86-.71-12.87-.06-22.09-1.03.37-27.84,2.01-55.83,2.18-83.47Z"/>
        <path class="cls-1" d="M311.32,77.91c0,8.7-.37,13.63-.49,22.2-.14,9.53-.48,13.76-.48,23.92-2.67-.54-5.1-.83-7.28-1.37,0,2.93,0,6.35.24,9.77,1.29,18.37,1.88,36.89,1.94,55.31-7.04.96-15.86.12-22.58.19-8.16.09-13.11.78-21.37-.59.24-2.84.24-5.67.48-8.5-5.58,5.12-11.93,8.52-18.21,8.83-49.09,2.46-62.69-62.05-59.97-98.37,2.59-34.55,17.93-84.85,59.72-87.08,23.11-1.23,48.16,16.07,57.54,37.57-.24,5.11-3.88,10.73-10.92,18.96-3.4,4.13-13.59,12.8-17.97,13.23-1.61-11.5-14-28.83-25.25-26.82-13.78,2.46-17.24,27.1-18.45,39.03-1.56,15.42-.89,49.11,19.91,54.32,6.64,1.66,11.65,1.28,16.02-2.3v-.26c.25-5.89.25-11.27,0-16.14-4.86.15-9.46.06-15.54.47,0-8.33-.48-11.73-.48-22.92,0-5.99.73-11.42.73-21.31,9.45,1.32,19.22,1.3,28.4,2.39,11.47,1.36,22.11.46,33.99-.54Z"/>
      </g>
      <path class="cls-1" d="M484.33,43.39c23.12,3.04,53.82,8.46,58.58,35.86,2.26,9.49-1.24,22.54-8.74,28.99,13.53,7.23,21.14,25.05,18.45,39.86-6.57,29.09-69.24,27.58-90.48,29-29.32,1.46-58.61,1.63-87.97,1.58-.73-5.87-.24-15.12,0-20.17-.24-6.13,1.46-11.64,2.43-14.93,2.56-.25,5.61-.38,9.02-.4,33.71-.18,67.29,4.48,101.03,4.21,14.04-.16,23.85-4.92,24.94-8.22,2.57-10.61-12.78-14.39-20.15-14.91.28,1.9.48,6.3.69,10.41.21,4.02-4.23,7.34-9.6,7.18-4.2-.13-7.91-.25-13.67-.22-2.92.07-5.43.13-7.81.14-4.74.02-8.95-.13-14.77-.63,1.72-19.47,3.2-38.56,2.43-58.1,0-3.29-.24-6.22-.48-8.96-2.92-.3-5.34-.75-8.01-1.24-1.7-4.89-2.19-10.48-1.94-15.96-.24-4.56-.24-11.86.49-17.25,15.23.87,30.43,1.83,45.57,3.76M488.04,93.7c9.23-.9,15.05-3.26,13.59-8.92-.97-4.37-6.31-6.55-13.35-7.68,0,1.83-.24,3.63-.24,5.83-.24,3.82,0,7.31,0,10.78M499.31,77.96s.01,0,.02,0c0,0-.01,0-.02,0h0Z"/>
      <path class="cls-1" d="M690.98,113.14c.08-24.44-2.41-48.79-4.86-73.27,8.74-1.67,14.38-2.03,23.07-4.1,9.62-2.28,13.59-4.09,23.79-7.55-1.23,29.68-3.79,59.24-2.43,88.84.97,21.14,2.18,42.43,3.4,63.64-8.74-1.64-14.43-3.51-23.07-4.92-8.9-1.46-12.86-1.33-22.09-2.68.15-20.01,2.12-40.1,2.18-59.96Z"/>
      <path class="cls-1" d="M385.66,89.12c.03,14.86-2.26,29.59-2.18,44.48,2.12-.09,4.38-.16,7-.12,12.68.16,25.41,1.18,38.09,2.16-.66-12.34-2.73-24.54-3.33-36.87-.99-20.34,1.37-39.85,2.43-60.16-10.2-1.9-14.14-2.05-23.79-4.3-8.66-2.01-14.32-4.25-23.07-6.3,1.95,20.55,4.81,40.47,4.86,61.11Z"/>
      <path class="cls-1" d="M335.44,95.18c4.61-5.06,6.56-7.91,10.93-13.02,3.4,3.74,5.61,5.52,9.22,8.96,4.85,4.63,8.98,5.39,15.78,8.48-5.1,5.84-7.03,8.34-11.9,14.05-4.24,4.97-6.56,7.86-10.93,13.26-4.13-4.88-6.32-8.78-11.9-11.86-4.55-2.52-6.31-5.62-11.17-8.45,4.61-5.46,7.28-8.33,9.95-11.41Z"/>
      <path class="cls-1" d="M669.63,110.25c-.89-3.78-2.01-7.61-3.31-11.44-1.67-4.92-3.63-9.85-5.74-14.77-1.16-2.7-2.35-5.4-3.58-8.07-4.31-9.37-8.84-18.73-12.86-28.26-8.74,1.69-14.66,1.34-23.3,2.47-8.66,1.13-16.75.79-25.25,1.39-8.25.25-25.49.7-25.74,1.72-2.51,9.6-1.69,19.96-3.88,29.15-.15.63,9.12.19,13.08.37,1.19.05,1.9.17,1.73.4-3.24,6.75-6.61,13.31-9.45,20.17-.13.31-.25.62-.38.93-2.52,6.21-4.51,12.8-5.71,19.82-2.53,14.8-2.36,29.84-2.43,44.97,9.23.43,13.19-.01,22.1.45,8.59.44,14.24,1.44,22.86,1.97.07,0,.13,0,.2.01-.4-5.25-1-9.38-1.46-12.84-.34-2.53-.64-5.27-1.03-8-.16-1.14-.33-2.29-.51-3.44,2.05.98,4.18,1.77,6.38,2.34,2.86.74,5.84,1.12,8.84,1.12,1.53,0,3.09-.1,4.64-.29,2.67-.33,5.22-.93,7.63-1.75.27-.04.55-.07.81-.11-.06.38-.12.77-.18,1.16-.99,6.06-2.44,12.88-3.51,22.26,8.74-.03,14.32-1.03,23.06-.75,9.72-.03,13.6.75,23.79,1.31-.82-21.23-1.92-41.56-6.79-62.28ZM645.66,128.33c-2.06,5.04-4.93,9.08-8.68,11.99-3.5,2.72-7.76,4.46-12.9,5.1-1.16.15-2.32.22-3.47.22-2.13,0-4.25-.26-6.34-.8-4.26-1.11-7.99-3.24-11.27-6.15-1.3-1.14-2.5-2.36-3.62-3.65-1.77-2.04-3.32-4.25-4.63-6.66-.16-.29-.23-.7-.17-1.01.46-2.22.73-4.46.85-6.71.08-1.57.1-3.14.02-4.72-.31-5.67-1.55-11.12-4.13-16.21-.29-.57-.26-.98.08-1.51,1.81-2.79,4.3-4.86,6.95-6.77.14-.1.33-.17.4-.31.09-.16.15-.43.08-.56-.06-.1-.28-.19-.44-.19-.03,0-.06,0-.09.01-.34.1-.67.28-.98.44-2.04,1.07-3.91,2.39-5.64,4.19.61-4.14,2.31-7.55,4.88-10.57,3.69-4.33,8.35-7.25,13.57-9.38,3.55-1.44,7.23-2.38,11.06-2.66.89-.07,1.79-.11,2.67-.11,2.88,0,5.69.44,8.32,1.87,2.96,1.61,4.66,4.11,4.61,7.53-.02,1.32.43,1.86,1.6,2.33,2.36.95,4.21,2.55,5.23,4.96.64,1.52.71,3.11.57,4.71-.21,2.36-1.01,4.55-2.22,6.63-.04-.55-.09-1.1-.13-1.65-.36-4.7-2.38-8.54-6.01-11.55-.29-.24-.55-.37-.84-.37-.2,0-.42.06-.69.18-4.53,2.1-9.28,3.25-14.24,3.25-.55,0-1.11-.01-1.67-.04-1.68-.09-3.34-.35-5.02-.4-.19,0-.38,0-.56,0-3.57,0-6.88.93-9.73,3.26-.89.72-.88.8-.41,1.82.54,1.18,1.1,2.35,1.58,3.56.13.31.13.76,0,1.08-1.42,3.76-2.88,7.51-4.31,11.27-.08.22-.13.52-.06.73,1.02,3.02,1.83,6.12,3.32,8.97,1.65,3.18,3.71,6.06,6.42,8.42.16.14.33.27.5.4.06.05.15.06.34.14-.06-.38-.11-.68-.16-.98-.54-3.01.69-5.22,3.11-6.87,3.43-2.34,7.25-3.6,11.38-3.97.17-.02.32-.03.44-.03.58,0,.65.21.7,1.03.07,1.14-.22,2.19-.74,3.19-.2.39-.48.6-.94.65-2.22.24-4.35.78-6.36,1.78-1.72.85-3.27,1.92-4.33,3.57-.63.97-1.11,2.04-.49,3.17.64,1.16,1.8,1.58,3.05,1.7.17.02.33.02.5.02,1.95,0,3.36-1.14,4.61-2.55.6-.68,1.12-1.45,1.6-2.22.66-1.08,1.94-1.75,3.2-1.75.38,0,.75.06,1.11.19.82.29,1.37.78,1.76,1.62.49,1.07,1.09,2.14,1.86,3.01.47.53,1.02.79,1.55.79.77,0,1.5-.53,1.88-1.51.95-2.41.24-5.67-3.02-7.09-.71-.31-1.51-.42-2.25-.69-.35-.13-.74-.35-.93-.64-.72-1.15-.81-2.44-.57-3.76.05-.3.21-.41.47-.41.04,0,.08,0,.12,0,3.36.33,6.25,1.65,8.44,4.25,1.32,1.56,1.19,3.39.51,5.2-.21.56-.49,1.1-.65,1.7,2.77-2.61,4.62-5.78,6.05-9.32.24-.58.46-1.18.68-1.78.44,1.49.85,2.83,1.24,4.16.48,1.65.98,3.3,1.41,4.97.12.46.14,1.05-.03,1.47Z"/>
    </g>
  </g>
</svg>